PathFileType	4	(X/Y/Z)	Patient4_TMGait_0pt2_03_right_09.trc.trc
DataRate	CameraRate	NumFrames	NumMarkers	Units	OrigDataRate	OrigDataStartFrame	OrigNumFrames
45.901639344262	45.901639344262	4	33	mm	45.901639344262	106	       141
Frame#	Time	Sacral			L.Shoulder			Chest			R.Shoulder			Neck			R.ASIS			L.ASIS			R.Thigh.Superior			R.Thigh.Lateral			R.Thigh.Inferior			R.Patella			L.Thigh.Superior			L.Thigh.Lateral			L.Thigh.Inferior			L.Patella			L.Shank.Superior			L.Shank.Lateral			L.Shank.Inferior			R.Shank.Superior			R.Shank.Lateral			R.Shank.Inferior			R.Heel			R.Midfoot.Superior			R.Midfoot.Lateral			R.Toe			L.Heel			L.Midfoot.Lateral			L.Midfoot.Superior			L.Toe			L.Elbow			L.Wrist			R.Elbow			R.Wrist			
		X1	Y1	Z1	X2	Y2	Z2	X3	Y3	Z3	X4	Y4	Z4	X5	Y5	Z5	X6	Y6	Z6	X7	Y7	Z7	X8	Y8	Z8	X9	Y9	Z9	X10	Y10	Z10	X11	Y11	Z11	X12	Y12	Z12	X13	Y13	Z13	X14	Y14	Z14	X15	Y15	Z15	X16	Y16	Z16	X17	Y17	Z17	X18	Y18	Z18	X19	Y19	Z19	X20	Y20	Z20	X21	Y21	Z21	X22	Y22	Z22	X23	Y23	Z23	X24	Y24	Z24	X25	Y25	Z25	X26	Y26	Z26	X27	Y27	Z27	X28	Y28	Z28	X29	Y29	Z29	X30	Y30	Z30	X31	Y31	Z31	X32	Y32	Z32	X33	Y33	Z33	

106	21.447500000000	747.560267778444	992.879856803610	393.214035885045	963.198784929905	1423.320009972275	238.101499014405	1039.268607814159	1345.094809934372	408.520570756394	937.379872835176	1413.317560613653	573.450283050100	918.229314994572	1480.877304139346	395.757694989111	969.514797343661	932.888233536203	528.326660051859	974.487058129704	945.566342583171	253.683848232478	1045.164654524091	750.183847259698	507.785073535721	992.200222396492	637.037713653532	587.082207408637	1080.526396748519	585.293984699560	514.557088987678	1088.755635329217	475.145912251318	545.705761657327	1035.454858147855	743.570763127509	291.075077623620	958.171523018506	607.828653972259	230.739587821527	1054.599352212529	549.649008100632	304.352707819611	1061.318939778674	475.336635184242	315.059105217849	1021.440141940553	398.827681570632	309.580921594563	919.532901218190	296.748795603976	255.464358071758	944.839323335205	182.189141780814	331.384353868979	1009.256449793005	405.527738731701	561.614604147461	889.582896133478	379.281147946508	633.652396050443	863.623253928226	267.525182727974	594.020977758143	655.587804328446	226.704728400195	590.222173487058	820.028017756277	144.963055744421	614.155860065282	712.911214763792	155.131064057108	654.651579696662	873.305962709974	29.942765667343	626.748170372374	795.862969441347	38.715141387111	368.544605596120	870.961890761605	35.391150755859	289.037337842969	954.944073296155	94.929621879655	318.602139156874	1083.339288191720	40.864008937783	290.264020444489	1040.291195849530	1086.886210889326	100.692339060308	1183.114391663248	869.115954721575	117.195827362241	844.456893119454	1065.751094888038	661.613476003627	861.328963656596	803.725355930944	671.472952647204	
107	21.469285714286	746.843457373681	994.242131816397	390.168397356680	966.372172239491	1424.701635921081	238.501466348348	1038.483261438215	1346.580402510625	410.565927450005	932.927419729812	1415.222030837667	573.087829294927	918.065092803492	1482.147716087264	395.298095110337	967.154621913695	934.856134949632	528.358838820313	975.686063562417	946.891207515932	253.754555636526	1046.379800277903	755.210606739664	507.260412757706	995.965317949810	640.942046374131	586.776119284571	1085.383964741856	590.744011153953	514.281512636209	1095.816428484390	480.516773734642	545.619259019492	1034.121001948805	743.151017079324	290.778710348167	955.298746177152	608.376100876678	230.004147417029	1050.472938228326	549.226956059934	304.073365911250	1056.470166334246	475.334123764222	315.026229600253	1016.685120113336	398.992151716862	309.417691967151	915.191250296606	296.692622005932	254.978301370850	940.309398290013	182.270561970833	331.206111729934	1017.099621560527	409.681890381448	561.308409785364	897.523592592276	382.000131785240	632.916082630446	873.444369448160	269.730401756994	593.427642603214	666.492954763479	225.292731206419	588.586828846976	832.127499663208	147.563735373341	614.029853833656	724.741915444220	155.711317938444	653.972752436625	887.587573090471	31.393877010221	628.054014011139	791.415566538987	38.725327098156	368.401214605634	866.572570071390	35.356882199712	288.916488609914	950.552010682221	94.913973699817	318.462305671999	1078.957054975288	40.831245150449	290.222698091071	1054.203960722468	1092.970137792698	98.903627774052	1212.635069663960	886.172438364368	117.754152247065	821.438667882607	1073.613465438215	657.898358797977	822.168556268995	810.915445785345	664.849528413929	
108	21.491071428571	746.310652786729	996.407144178827	387.474863334866	969.682707372086	1426.706126710809	239.261651570200	1037.694489443885	1348.838152870904	412.961377319680	928.477659126501	1418.160517874886	572.828687859164	917.878963941021	1484.072932896861	395.034461205116	964.680048755623	937.522927603478	528.993288221649	977.041563087766	948.760079937383	254.550836916842	1046.479183933549	760.239031519004	507.595000425643	997.867102094042	645.206964671909	587.302507621101	1087.939524015053	596.094921987940	514.840885803629	1100.439298847435	486.299081911995	546.304296561219	1032.287956746479	742.978850745789	291.255650216336	951.729311745686	609.426820137002	229.687726502382	1045.364238890880	549.038909802590	304.238113468157	1050.433770409138	475.635962970516	315.353184800025	1010.970528634079	399.583631481711	309.482569926353	910.160936418609	296.862622920935	254.651522783452	935.441204767232	182.582815062740	331.098019128088	1023.339929770290	413.959849411035	561.874875215086	904.710887174513	383.322299830704	633.343190419508	883.906713023583	270.485268938945	593.866961884533	679.020619503878	219.047346496572	588.506476376544	846.703794884427	148.751029964854	614.982708158918	739.424447930477	152.966580042515	654.736043680246	906.303245220158	33.588670920680	630.309957901291	786.942943956818	38.730044483019	368.263172026958	862.163865464960	35.329627929482	288.804371461649	946.137228418370	94.928010683740	318.316495507737	1074.552460233191	40.828222921701	290.191757584880	1067.813654317635	1100.194112403336	97.482356809867	1241.394216949615	905.852854799026	118.812821076838	799.551072759990	1083.290567246906	654.010636509439	786.559178197464	821.003560945756	657.845513253430	
109	21.512857142857	745.932271765646	999.196607945976	385.138757707055	973.108579006888	1429.159862993945	240.359159103246	1036.919993844592	1351.655091474438	415.643898613657	924.137774602349	1421.891766022053	572.667848363523	917.706409733576	1486.480137529622	394.965751792803	962.077513191312	940.701400960534	530.211182935545	978.493077788366	950.987634573508	256.046243039248	1045.449245005786	764.966191473035	508.787871760110	997.835638644748	649.539804980818	588.648305096183	1088.124446568912	601.015495778011	516.223544964709	1102.541601147436	492.205404907343	547.728880372726	1029.998762877092	742.991647466898	292.482447399926	947.605419321163	610.878111542210	229.758891858706	1039.456348640490	549.038820696825	304.819942406680	1043.425113224646	476.171978189822	316.003879577037	1004.486650774348	400.513955488591	309.750860285799	904.568980172519	297.217853105662	254.478773354465	930.298405889824	183.075634684253	331.062000876170	1027.944100338346	418.133645825068	563.327984953696	911.242538729023	383.100608811164	635.021994271437	895.064570633897	269.747490674183	595.447623530406	693.437342825350	208.257084998667	590.172714389536	863.714403833068	148.496316947584	617.144576974124	757.030135320220	147.083257882318	657.087804861064	929.148664752706	36.502903466235	633.605186738024	782.452757864561	38.725799604813	368.135102912749	857.738204460251	35.306667707595	288.702404820729	941.703278601301	94.964344497004	318.175755550657	1070.129817044683	40.851056989216	290.172781609787	1081.092789408802	1108.298257607064	96.498896270116	1269.067578170273	927.826004355109	120.392148666864	779.201597704253	1094.263459360302	649.957125779269	754.776721280064	833.013832397337	650.636383119759	
